<?xml version="1.0" encoding="utf-8" standalone="no"?>
<!DOCTYPE svg PUBLIC "-//W3C//DTD SVG 1.1//EN"
  "http://www.w3.org/Graphics/SVG/1.1/DTD/svg11.dtd">
<svg xmlns:xlink="http://www.w3.org/1999/xlink" width="432.9pt" height="259.868077pt" viewBox="0 0 432.9 259.868077" xmlns="http://www.w3.org/2000/svg" version="1.1">
 <metadata>
  <rdf:RDF xmlns:dc="http://purl.org/dc/elements/1.1/" xmlns:cc="http://creativecommons.org/ns#" xmlns:rdf="http://www.w3.org/1999/02/22-rdf-syntax-ns#">
   <cc:Work>
    <dc:type rdf:resource="http://purl.org/dc/dcmitype/StillImage"/>
    <dc:date>2026-10-02T14:52:36.033533</dc:date>
    <dc:format>image/svg+xml</dc:format>
    <dc:creator>
     <cc:Agent>
      <dc:title>Matplotlib v3.11.2, https://matplotlib.org/</dc:title>
     </cc:Agent>
    </dc:creator>
   </cc:Work>
  </rdf:RDF>
 </metadata>
 <defs>
  <style type="text/css">*{stroke-linejoin: round; stroke-linecap: butt}</style>
 </defs>
 <g id="figure_1">
  <g id="patch_1">
   <path d="M 0 259.868077 
L 432.9 259.868077 
L 432.9 0 
L 0 0 
z
" style="fill: #f7f6f1"/>
  </g>
  <g id="axes_1">
   <g id="patch_2">
    <path d="M 280.834615 148.043077 
L 201.633645 56.934333 
L 177.355866 85.867958 
z
" clip-path="url(#p39c7640390)" style="fill: #2a78d6; opacity: 0.3"/>
   </g>
   <g id="patch_3">
    <path d="M 280.834615 148.043077 
L 360.035586 239.151821 
L 384.313365 210.218195 
z
" clip-path="url(#p39c7640390)" style="fill: #2a78d6; opacity: 0.3"/>
   </g>
   <g id="patch_4">
    <path d="M 243.843246 117.004164 
C 240.222606 121.319149 237.384734 126.234558 235.458235 131.527642 
C 233.531735 136.820725 232.546154 142.410304 232.546154 148.043077 
" clip-path="url(#p39c7640390)" style="fill: none; stroke: #e0662f; stroke-width: 2.6; stroke-linejoin: miter"/>
   </g>
   <g id="line2d_1">
    <path d="M 53.476442 148.043077 
L 280.834615 148.043077 
" clip-path="url(#p39c7640390)" style="fill: none; stroke-dasharray: 6.66,2.88; stroke-dashoffset: 0; stroke: #16213a; stroke-width: 1.8"/>
   </g>
   <g id="line2d_2">
    <defs>
     <path id="m0086c80a3c" d="M 0 12 
C 3.182437 12 6.234958 10.735604 8.485281 8.485281 
C 10.735604 6.234958 12 3.182437 12 0 
C 12 -3.182437 10.735604 -6.234958 8.485281 -8.485281 
C 6.234958 -10.735604 3.182437 -12 0 -12 
C -3.182437 -12 -6.234958 -10.735604 -8.485281 -8.485281 
C -10.735604 -6.234958 -12 -3.182437 -12 0 
C -12 3.182437 -10.735604 6.234958 -8.485281 8.485281 
C -6.234958 10.735604 -3.182437 12 0 12 
z
" style="stroke: #1baf7a"/>
    </defs>
    <g clip-path="url(#p39c7640390)">
     <use xlink:href="#m0086c80a3c" x="39.392308" y="148.043077" style="fill: #1baf7a; stroke: #1baf7a"/>
    </g>
   </g>
   <g id="line2d_3">
    <path d="M 280.834615 148.043077 
L 179.10835 62.686066 
" clip-path="url(#p39c7640390)" style="fill: none; stroke-dasharray: 1.6,2.64; stroke-dashoffset: 0; stroke: #2a78d6; stroke-width: 1.6"/>
   </g>
   <g id="line2d_4">
    <path d="M 280.834615 148.043077 
L 382.560881 233.400088 
" clip-path="url(#p39c7640390)" style="fill: none; stroke-dasharray: 1.6,2.64; stroke-dashoffset: 0; stroke: #2a78d6; stroke-width: 1.6"/>
   </g>
   <g id="text_1">
    <!-- line of sight -->
    <g style="fill: #465267" transform="translate(113.204712 170.260673) scale(0.16 -0.16)">
     <defs>
      <path id="DejaVuSans-4f" d="M 603 4863 
L 1178 4863 
L 1178 0 
L 603 0 
L 603 4863 
z
" transform="scale(0.015625)"/>
      <path id="DejaVuSans-4c" d="M 603 3500 
L 1178 3500 
L 1178 0 
L 603 0 
L 603 3500 
z
M 603 4863 
L 1178 4863 
L 1178 4134 
L 603 4134 
L 603 4863 
z
" transform="scale(0.015625)"/>
      <path id="DejaVuSans-51" d="M 3513 2113 
L 3513 0 
L 2938 0 
L 2938 2094 
Q 2938 2591 2744 2837 
Q 2550 3084 2163 3084 
Q 1697 3084 1428 2787 
Q 1159 2491 1159 1978 
L 1159 0 
L 581 0 
L 581 3500 
L 1159 3500 
L 1159 2956 
Q 1366 3272 1645 3428 
Q 1925 3584 2291 3584 
Q 2894 3584 3203 3211 
Q 3513 2838 3513 2113 
z
" transform="scale(0.015625)"/>
      <path id="DejaVuSans-48" d="M 3597 1894 
L 3597 1613 
L 953 1613 
Q 991 1019 1311 708 
Q 1631 397 2203 397 
Q 2534 397 2845 478 
Q 3156 559 3463 722 
L 3463 178 
Q 3153 47 2828 -22 
Q 2503 -91 2169 -91 
Q 1331 -91 842 396 
Q 353 884 353 1716 
Q 353 2575 817 3079 
Q 1281 3584 2069 3584 
Q 2775 3584 3186 3129 
Q 3597 2675 3597 1894 
z
M 3022 2063 
Q 3016 2534 2758 2815 
Q 2500 3097 2075 3097 
Q 1594 3097 1305 2825 
Q 1016 2553 972 2059 
L 3022 2063 
z
" transform="scale(0.015625)"/>
      <path id="DejaVuSans-3" transform="scale(0.015625)"/>
      <path id="DejaVuSans-52" d="M 1959 3097 
Q 1497 3097 1228 2736 
Q 959 2375 959 1747 
Q 959 1119 1226 758 
Q 1494 397 1959 397 
Q 2419 397 2687 759 
Q 2956 1122 2956 1747 
Q 2956 2369 2687 2733 
Q 2419 3097 1959 3097 
z
M 1959 3584 
Q 2709 3584 3137 3096 
Q 3566 2609 3566 1747 
Q 3566 888 3137 398 
Q 2709 -91 1959 -91 
Q 1206 -91 779 398 
Q 353 888 353 1747 
Q 353 2609 779 3096 
Q 1206 3584 1959 3584 
z
" transform="scale(0.015625)"/>
      <path id="DejaVuSans-49" d="M 2375 4863 
L 2375 4384 
L 1825 4384 
Q 1516 4384 1395 4259 
Q 1275 4134 1275 3809 
L 1275 3500 
L 2222 3500 
L 2222 3053 
L 1275 3053 
L 1275 0 
L 697 0 
L 697 3053 
L 147 3053 
L 147 3500 
L 697 3500 
L 697 3744 
Q 697 4328 969 4595 
Q 1241 4863 1831 4863 
L 2375 4863 
z
" transform="scale(0.015625)"/>
      <path id="DejaVuSans-56" d="M 2834 3397 
L 2834 2853 
Q 2591 2978 2328 3040 
Q 2066 3103 1784 3103 
Q 1356 3103 1142 2972 
Q 928 2841 928 2578 
Q 928 2378 1081 2264 
Q 1234 2150 1697 2047 
L 1894 2003 
Q 2506 1872 2764 1633 
Q 3022 1394 3022 966 
Q 3022 478 2636 193 
Q 2250 -91 1575 -91 
Q 1294 -91 989 -36 
Q 684 19 347 128 
L 347 722 
Q 666 556 975 473 
Q 1284 391 1588 391 
Q 1994 391 2212 530 
Q 2431 669 2431 922 
Q 2431 1156 2273 1281 
Q 2116 1406 1581 1522 
L 1381 1569 
Q 847 1681 609 1914 
Q 372 2147 372 2553 
Q 372 3047 722 3315 
Q 1072 3584 1716 3584 
Q 2034 3584 2315 3537 
Q 2597 3491 2834 3397 
z
" transform="scale(0.015625)"/>
      <path id="DejaVuSans-4a" d="M 2906 1791 
Q 2906 2416 2648 2759 
Q 2391 3103 1925 3103 
Q 1463 3103 1205 2759 
Q 947 2416 947 1791 
Q 947 1169 1205 825 
Q 1463 481 1925 481 
Q 2391 481 2648 825 
Q 2906 1169 2906 1791 
z
M 3481 434 
Q 3481 -459 3084 -895 
Q 2688 -1331 1869 -1331 
Q 1566 -1331 1297 -1286 
Q 1028 -1241 775 -1147 
L 775 -588 
Q 1028 -725 1275 -790 
Q 1522 -856 1778 -856 
Q 2344 -856 2625 -561 
Q 2906 -266 2906 331 
L 2906 616 
Q 2728 306 2450 153 
Q 2172 0 1784 0 
Q 1141 0 747 490 
Q 353 981 353 1791 
Q 353 2603 747 3093 
Q 1141 3584 1784 3584 
Q 2172 3584 2450 3431 
Q 2728 3278 2906 2969 
L 2906 3500 
L 3481 3500 
L 3481 434 
z
" transform="scale(0.015625)"/>
      <path id="DejaVuSans-4b" d="M 3513 2113 
L 3513 0 
L 2938 0 
L 2938 2094 
Q 2938 2591 2744 2837 
Q 2550 3084 2163 3084 
Q 1697 3084 1428 2787 
Q 1159 2491 1159 1978 
L 1159 0 
L 581 0 
L 581 4863 
L 1159 4863 
L 1159 2956 
Q 1366 3272 1645 3428 
Q 1925 3584 2291 3584 
Q 2894 3584 3203 3211 
Q 3513 2838 3513 2113 
z
" transform="scale(0.015625)"/>
      <path id="DejaVuSans-57" d="M 1172 4494 
L 1172 3500 
L 2356 3500 
L 2356 3053 
L 1172 3053 
L 1172 1153 
Q 1172 725 1289 603 
Q 1406 481 1766 481 
L 2356 481 
L 2356 0 
L 1766 0 
Q 1100 0 847 248 
Q 594 497 594 1153 
L 594 3053 
L 172 3053 
L 172 3500 
L 594 3500 
L 594 4494 
L 1172 4494 
z
" transform="scale(0.015625)"/>
     </defs>
     <use xlink:href="#DejaVuSans-4f"/>
     <use xlink:href="#DejaVuSans-4c" transform="translate(27.78125 0)"/>
     <use xlink:href="#DejaVuSans-51" transform="translate(55.5625 0)"/>
     <use xlink:href="#DejaVuSans-48" transform="translate(118.9375 0)"/>
     <use xlink:href="#DejaVuSans-3" transform="translate(180.46875 0)"/>
     <use xlink:href="#DejaVuSans-52" transform="translate(212.25 0)"/>
     <use xlink:href="#DejaVuSans-49" transform="translate(273.4375 0)"/>
     <use xlink:href="#DejaVuSans-3" transform="translate(308.640625 0)"/>
     <use xlink:href="#DejaVuSans-56" transform="translate(340.421875 0)"/>
     <use xlink:href="#DejaVuSans-4c" transform="translate(392.515625 0)"/>
     <use xlink:href="#DejaVuSans-4a" transform="translate(420.296875 0)"/>
     <use xlink:href="#DejaVuSans-4b" transform="translate(483.78125 0)"/>
     <use xlink:href="#DejaVuSans-57" transform="translate(547.15625 0)"/>
    </g>
   </g>
   <g id="text_2">
    <!-- Earth -->
    <g style="fill: #16213a" transform="translate(13.917464 182.6003) scale(0.19 -0.19)">
     <defs>
      <path id="DejaVuSans-28" d="M 628 4666 
L 3578 4666 
L 3578 4134 
L 1259 4134 
L 1259 2753 
L 3481 2753 
L 3481 2222 
L 1259 2222 
L 1259 531 
L 3634 531 
L 3634 0 
L 628 0 
L 628 4666 
z
" transform="scale(0.015625)"/>
      <path id="DejaVuSans-44" d="M 2194 1759 
Q 1497 1759 1228 1600 
Q 959 1441 959 1056 
Q 959 750 1161 570 
Q 1363 391 1709 391 
Q 2188 391 2477 730 
Q 2766 1069 2766 1631 
L 2766 1759 
L 2194 1759 
z
M 3341 1997 
L 3341 0 
L 2766 0 
L 2766 531 
Q 2569 213 2275 61 
Q 1981 -91 1556 -91 
Q 1019 -91 701 211 
Q 384 513 384 1019 
Q 384 1609 779 1909 
Q 1175 2209 1959 2209 
L 2766 2209 
L 2766 2266 
Q 2766 2663 2505 2880 
Q 2244 3097 1772 3097 
Q 1472 3097 1187 3025 
Q 903 2953 641 2809 
L 641 3341 
Q 956 3463 1253 3523 
Q 1550 3584 1831 3584 
Q 2591 3584 2966 3190 
Q 3341 2797 3341 1997 
z
" transform="scale(0.015625)"/>
      <path id="DejaVuSans-55" d="M 2631 2963 
Q 2534 3019 2420 3045 
Q 2306 3072 2169 3072 
Q 1681 3072 1420 2755 
Q 1159 2438 1159 1844 
L 1159 0 
L 581 0 
L 581 3500 
L 1159 3500 
L 1159 2956 
Q 1341 3275 1631 3429 
Q 1922 3584 2338 3584 
Q 2397 3584 2469 3576 
Q 2541 3569 2628 3553 
L 2631 2963 
z
" transform="scale(0.015625)"/>
     </defs>
     <use xlink:href="#DejaVuSans-28"/>
     <use xlink:href="#DejaVuSans-44" transform="translate(63.1875 0)"/>
     <use xlink:href="#DejaVuSans-55" transform="translate(124.46875 0)"/>
     <use xlink:href="#DejaVuSans-57" transform="translate(165.578125 0)"/>
     <use xlink:href="#DejaVuSans-4b" transform="translate(204.78125 0)"/>
    </g>
   </g>
   <g id="text_3">
    <!-- jet -->
    <g style="fill: #2a78d6" transform="translate(148.525153 52.948461) scale(0.19 -0.19)">
     <defs>
      <path id="DejaVuSans-4d" d="M 603 3500 
L 1178 3500 
L 1178 -63 
Q 1178 -731 923 -1031 
Q 669 -1331 103 -1331 
L -116 -1331 
L -116 -844 
L 38 -844 
Q 366 -844 484 -692 
Q 603 -541 603 -63 
L 603 3500 
z
M 603 4863 
L 1178 4863 
L 1178 4134 
L 603 4134 
L 603 4863 
z
" transform="scale(0.015625)"/>
     </defs>
     <use xlink:href="#DejaVuSans-4d"/>
     <use xlink:href="#DejaVuSans-48" transform="translate(27.78125 0)"/>
     <use xlink:href="#DejaVuSans-57" transform="translate(89.3125 0)"/>
    </g>
   </g>
   <g id="text_4">
    <!-- $\theta_v$ -->
    <g style="fill: #e0662f" transform="translate(207.612775 132.379684) scale(0.24 -0.24)">
     <defs>
      <path id="DejaVuSans-Oblique-34c" d="M 2913 2219 
L 925 2219 
Q 791 1284 928 888 
Q 1100 400 1566 400 
Q 2034 400 2391 891 
Q 2703 1322 2913 2219 
z
M 3009 2750 
Q 3094 3638 2984 3950 
Q 2813 4444 2353 4444 
Q 1875 4444 1525 3956 
Q 1250 3563 1034 2750 
L 3009 2750 
z
M 2444 4913 
Q 3194 4913 3494 4250 
Q 3794 3591 3566 2422 
Q 3341 1256 2781 594 
Q 2225 -72 1475 -72 
Q 722 -72 425 594 
Q 128 1256 353 2422 
Q 581 3591 1134 4250 
Q 1691 4913 2444 4913 
z
" transform="scale(0.015625)"/>
      <path id="DejaVuSans-Oblique-59" d="M 459 3500 
L 1069 3500 
L 1581 525 
L 3256 3500 
L 3866 3500 
L 1875 0 
L 1100 0 
L 459 3500 
z
" transform="scale(0.015625)"/>
     </defs>
     <use xlink:href="#DejaVuSans-Oblique-34c" transform="translate(0 0.234375)"/>
     <use xlink:href="#DejaVuSans-Oblique-59" transform="translate(61.181641 -14.765576) scale(0.7)"/>
    </g>
   </g>
   <g id="text_5">
    <!-- 4. viewing angle $\theta_v$ -->
    <g style="fill: #16213a" transform="translate(115.755 23.37) scale(0.21 -0.21)">
     <defs>
      <path id="DejaVuSans-17" d="M 2419 4116 
L 825 1625 
L 2419 1625 
L 2419 4116 
z
M 2253 4666 
L 3047 4666 
L 3047 1625 
L 3713 1625 
L 3713 1100 
L 3047 1100 
L 3047 0 
L 2419 0 
L 2419 1100 
L 313 1100 
L 313 1709 
L 2253 4666 
z
" transform="scale(0.015625)"/>
      <path id="DejaVuSans-11" d="M 684 794 
L 1344 794 
L 1344 0 
L 684 0 
L 684 794 
z
" transform="scale(0.015625)"/>
      <path id="DejaVuSans-59" d="M 191 3500 
L 800 3500 
L 1894 563 
L 2988 3500 
L 3597 3500 
L 2284 0 
L 1503 0 
L 191 3500 
z
" transform="scale(0.015625)"/>
      <path id="DejaVuSans-5a" d="M 269 3500 
L 844 3500 
L 1563 769 
L 2278 3500 
L 2956 3500 
L 3675 769 
L 4391 3500 
L 4966 3500 
L 4050 0 
L 3372 0 
L 2619 2869 
L 1863 0 
L 1184 0 
L 269 3500 
z
" transform="scale(0.015625)"/>
     </defs>
     <use xlink:href="#DejaVuSans-17" transform="translate(0 0.234375)"/>
     <use xlink:href="#DejaVuSans-11" transform="translate(63.623047 0.234375)"/>
     <use xlink:href="#DejaVuSans-3" transform="translate(95.410156 0.234375)"/>
     <use xlink:href="#DejaVuSans-59" transform="translate(127.197266 0.234375)"/>
     <use xlink:href="#DejaVuSans-4c" transform="translate(186.376953 0.234375)"/>
     <use xlink:href="#DejaVuSans-48" transform="translate(214.160156 0.234375)"/>
     <use xlink:href="#DejaVuSans-5a" transform="translate(275.683594 0.234375)"/>
     <use xlink:href="#DejaVuSans-4c" transform="translate(357.470703 0.234375)"/>
     <use xlink:href="#DejaVuSans-51" transform="translate(385.253906 0.234375)"/>
     <use xlink:href="#DejaVuSans-4a" transform="translate(448.632812 0.234375)"/>
     <use xlink:href="#DejaVuSans-3" transform="translate(512.109375 0.234375)"/>
     <use xlink:href="#DejaVuSans-44" transform="translate(543.896484 0.234375)"/>
     <use xlink:href="#DejaVuSans-51" transform="translate(605.175781 0.234375)"/>
     <use xlink:href="#DejaVuSans-4a" transform="translate(668.554688 0.234375)"/>
     <use xlink:href="#DejaVuSans-4f" transform="translate(732.03125 0.234375)"/>
     <use xlink:href="#DejaVuSans-48" transform="translate(759.814453 0.234375)"/>
     <use xlink:href="#DejaVuSans-3" transform="translate(821.337891 0.234375)"/>
     <use xlink:href="#DejaVuSans-Oblique-34c" transform="translate(853.125 0.234375)"/>
     <use xlink:href="#DejaVuSans-Oblique-59" transform="translate(914.306641 -14.765576) scale(0.7)"/>
    </g>
   </g>
   <g id="line2d_5">
    <path d="M 280.834615 148.043077 
" clip-path="url(#p39c7640390)" style="fill: none; stroke: #e0662f; stroke-width: 1.5; stroke-linecap: square"/>
    <defs>
     <path id="ma7199a532a" d="M 0 -13 
L -2.918682 -4.017221 
L -12.363735 -4.017221 
L -4.722526 1.534442 
L -7.641208 10.517221 
L -0 4.965558 
L 7.641208 10.517221 
L 4.722526 1.534442 
L 12.363735 -4.017221 
L 2.918682 -4.017221 
z
" style="stroke: #ffffff; stroke-width: 1.2; stroke-linejoin: bevel"/>
    </defs>
    <g clip-path="url(#p39c7640390)">
     <use xlink:href="#ma7199a532a" x="280.834615" y="148.043077" style="fill: #e0662f; stroke: #ffffff; stroke-width: 1.2; stroke-linejoin: bevel"/>
    </g>
   </g>
  </g>
 </g>
 <defs>
  <clipPath id="p39c7640390">
   <rect x="7.2" y="35.37" width="418.5" height="217.298077"/>
  </clipPath>
 </defs>
</svg>
